%TF.GenerationSoftware,KiCad,Pcbnew,8.0.8*%
%TF.CreationDate,2025-05-25T14:30:28+05:30*%
%TF.ProjectId,led_light,6c65645f-6c69-4676-9874-2e6b69636164,rev?*%
%TF.SameCoordinates,Original*%
%TF.FileFunction,Glue,Top*%
%TF.FilePolarity,Positive*%
%FSLAX46Y46*%
G04 Gerber Fmt 4.6, Leading zero omitted, Abs format (unit mm)*
G04 Created by KiCad (PCBNEW 8.0.8) date 2025-05-25 14:30:28*
%MOMM*%
%LPD*%
G01*
G04 APERTURE LIST*
G04 Aperture macros list*
%AMRoundRect*
0 Rectangle with rounded corners*
0 $1 Rounding radius*
0 $2 $3 $4 $5 $6 $7 $8 $9 X,Y pos of 4 corners*
0 Add a 4 corners polygon primitive as box body*
4,1,4,$2,$3,$4,$5,$6,$7,$8,$9,$2,$3,0*
0 Add four circle primitives for the rounded corners*
1,1,$1+$1,$2,$3*
1,1,$1+$1,$4,$5*
1,1,$1+$1,$6,$7*
1,1,$1+$1,$8,$9*
0 Add four rect primitives between the rounded corners*
20,1,$1+$1,$2,$3,$4,$5,0*
20,1,$1+$1,$4,$5,$6,$7,0*
20,1,$1+$1,$6,$7,$8,$9,0*
20,1,$1+$1,$8,$9,$2,$3,0*%
G04 Aperture macros list end*
%TA.AperFunction,SMDPad,CuDef*%
%ADD10RoundRect,0.150000X-0.512500X-0.150000X0.512500X-0.150000X0.512500X0.150000X-0.512500X0.150000X0*%
%TD*%
%TA.AperFunction,SMDPad,CuDef*%
%ADD11R,1.600000X0.550000*%
%TD*%
%TA.AperFunction,SMDPad,CuDef*%
%ADD12R,0.550000X1.600000*%
%TD*%
%ADD13RoundRect,0.150000X-0.512500X-0.150000X0.512500X-0.150000X0.512500X0.150000X-0.512500X0.150000X0*%
%ADD14R,1.600000X0.550000*%
%ADD15R,0.550000X1.600000*%
%ADD16C,0.150000*%
%ADD17C,0.120000*%
%ADD18C,0.050000*%
G04 APERTURE END LIST*
D10*
%TO.P,U3,1,BOOST*%
%TO.N,unconnected-(U3-BOOST-Pad1)*%
X120500000Y-92000000D03*
%TO.P,U3,2,GND*%
%TO.N,GND*%
X120500000Y-92950000D03*
%TO.P,U3,3,Vfb*%
%TO.N,unconnected-(U3-Vfb-Pad3)*%
X120500000Y-93900000D03*
%TO.P,U3,4,EN*%
%TO.N,unconnected-(U3-EN-Pad4)*%
X122775000Y-93900000D03*
%TO.P,U3,5,V_{IN}*%
%TO.N,+3.3V*%
X122775000Y-92950000D03*
%TO.P,U3,6,SW*%
%TO.N,unconnected-(U3-SW-Pad6)*%
X122775000Y-92000000D03*
%TD*%
D11*
%TO.P,U2,1,PD3*%
%TO.N,Net-(Q1-G)*%
X126750000Y-82200000D03*
%TO.P,U2,2,PD4*%
%TO.N,Net-(D1-A)*%
X126750000Y-83000000D03*
%TO.P,U2,3,GND*%
%TO.N,GND*%
X126750000Y-83800000D03*
%TO.P,U2,4,VCC*%
%TO.N,+3.3V*%
X126750000Y-84600000D03*
%TO.P,U2,5,GND*%
%TO.N,GND*%
X126750000Y-85400000D03*
%TO.P,U2,6,VCC*%
%TO.N,+3.3V*%
X126750000Y-86200000D03*
%TO.P,U2,7,XTAL1/PB6*%
%TO.N,Net-(U2-XTAL1{slash}PB6)*%
X126750000Y-87000000D03*
%TO.P,U2,8,XTAL2/PB7*%
%TO.N,Net-(U2-XTAL2{slash}PB7)*%
X126750000Y-87800000D03*
D12*
%TO.P,U2,9,PD5*%
%TO.N,unconnected-(U2-PD5-Pad9)*%
X128200000Y-89250000D03*
%TO.P,U2,10,PD6*%
%TO.N,unconnected-(U2-PD6-Pad10)*%
X129000000Y-89250000D03*
%TO.P,U2,11,PD7*%
%TO.N,unconnected-(U2-PD7-Pad11)*%
X129800000Y-89250000D03*
%TO.P,U2,12,PB0*%
%TO.N,unconnected-(U2-PB0-Pad12)*%
X130600000Y-89250000D03*
%TO.P,U2,13,PB1*%
%TO.N,unconnected-(U2-PB1-Pad13)*%
X131400000Y-89250000D03*
%TO.P,U2,14,PB2*%
%TO.N,unconnected-(U2-PB2-Pad14)*%
X132200000Y-89250000D03*
%TO.P,U2,15,PB3*%
%TO.N,unconnected-(U2-PB3-Pad15)*%
X133000000Y-89250000D03*
%TO.P,U2,16,PB4*%
%TO.N,unconnected-(U2-PB4-Pad16)*%
X133800000Y-89250000D03*
D11*
%TO.P,U2,17,PB5*%
%TO.N,unconnected-(U2-PB5-Pad17)*%
X135250000Y-87800000D03*
%TO.P,U2,18,AVCC*%
%TO.N,+3.3V*%
X135250000Y-87000000D03*
%TO.P,U2,19,ADC6*%
%TO.N,unconnected-(U2-ADC6-Pad19)*%
X135250000Y-86200000D03*
%TO.P,U2,20,AREF*%
%TO.N,unconnected-(U2-AREF-Pad20)*%
X135250000Y-85400000D03*
%TO.P,U2,21,GND*%
%TO.N,GND*%
X135250000Y-84600000D03*
%TO.P,U2,22,ADC7*%
%TO.N,unconnected-(U2-ADC7-Pad22)*%
X135250000Y-83800000D03*
%TO.P,U2,23,PC0*%
%TO.N,unconnected-(U2-PC0-Pad23)*%
X135250000Y-83000000D03*
%TO.P,U2,24,PC1*%
%TO.N,unconnected-(U2-PC1-Pad24)*%
X135250000Y-82200000D03*
D12*
%TO.P,U2,25,PC2*%
%TO.N,unconnected-(U2-PC2-Pad25)*%
X133800000Y-80750000D03*
%TO.P,U2,26,PC3*%
%TO.N,unconnected-(U2-PC3-Pad26)*%
X133000000Y-80750000D03*
%TO.P,U2,27,PC4*%
%TO.N,unconnected-(U2-PC4-Pad27)*%
X132200000Y-80750000D03*
%TO.P,U2,28,PC5*%
%TO.N,unconnected-(U2-PC5-Pad28)*%
X131400000Y-80750000D03*
%TO.P,U2,29,~{RESET}/PC6*%
%TO.N,Net-(U2-~{RESET}{slash}PC6)*%
X130600000Y-80750000D03*
%TO.P,U2,30,PD0*%
%TO.N,Net-(U1-HCI_TXD)*%
X129800000Y-80750000D03*
%TO.P,U2,31,PD1*%
%TO.N,Net-(U1-HCI_RXD)*%
X129000000Y-80750000D03*
%TO.P,U2,32,PD2*%
%TO.N,Net-(U2-PD2)*%
X128200000Y-80750000D03*
%TD*%
D13*
%TO.C,U3*%
X120500000Y-92000000D03*
X120500000Y-92950000D03*
X120500000Y-93900000D03*
X122775000Y-93900000D03*
X122775000Y-92950000D03*
X122775000Y-92000000D03*
%TD*%
D14*
%TO.C,U2*%
X126750000Y-82200000D03*
X126750000Y-83000000D03*
X126750000Y-83800000D03*
X126750000Y-84600000D03*
X126750000Y-85400000D03*
X126750000Y-86200000D03*
X126750000Y-87000000D03*
X126750000Y-87800000D03*
D15*
X128200000Y-89250000D03*
X129000000Y-89250000D03*
X129800000Y-89250000D03*
X130600000Y-89250000D03*
X131400000Y-89250000D03*
X132200000Y-89250000D03*
X133000000Y-89250000D03*
X133800000Y-89250000D03*
D14*
X135250000Y-87800000D03*
X135250000Y-87000000D03*
X135250000Y-86200000D03*
X135250000Y-85400000D03*
X135250000Y-84600000D03*
X135250000Y-83800000D03*
X135250000Y-83000000D03*
X135250000Y-82200000D03*
D15*
X133800000Y-80750000D03*
X133000000Y-80750000D03*
X132200000Y-80750000D03*
X131400000Y-80750000D03*
X130600000Y-80750000D03*
X129800000Y-80750000D03*
X129000000Y-80750000D03*
X128200000Y-80750000D03*
%TD*%
D13*
%TO.C,U3*%
X120500000Y-92000000D03*
X120500000Y-92950000D03*
X120500000Y-93900000D03*
X122775000Y-93900000D03*
X122775000Y-92950000D03*
X122775000Y-92000000D03*
%TD*%
D14*
%TO.C,U2*%
X126750000Y-82200000D03*
X126750000Y-83000000D03*
X126750000Y-83800000D03*
X126750000Y-84600000D03*
X126750000Y-85400000D03*
X126750000Y-86200000D03*
X126750000Y-87000000D03*
X126750000Y-87800000D03*
D15*
X128200000Y-89250000D03*
X129000000Y-89250000D03*
X129800000Y-89250000D03*
X130600000Y-89250000D03*
X131400000Y-89250000D03*
X132200000Y-89250000D03*
X133000000Y-89250000D03*
X133800000Y-89250000D03*
D14*
X135250000Y-87800000D03*
X135250000Y-87000000D03*
X135250000Y-86200000D03*
X135250000Y-85400000D03*
X135250000Y-84600000D03*
X135250000Y-83800000D03*
X135250000Y-83000000D03*
X135250000Y-82200000D03*
D15*
X133800000Y-80750000D03*
X133000000Y-80750000D03*
X132200000Y-80750000D03*
X131400000Y-80750000D03*
X130600000Y-80750000D03*
X129800000Y-80750000D03*
X129000000Y-80750000D03*
X128200000Y-80750000D03*
%TD*%
D16*
X120875595Y-90004819D02*
X120875595Y-90814342D01*
X120875595Y-90814342D02*
X120923214Y-90909580D01*
X120923214Y-90909580D02*
X120970833Y-90957200D01*
X120970833Y-90957200D02*
X121066071Y-91004819D01*
X121066071Y-91004819D02*
X121256547Y-91004819D01*
X121256547Y-91004819D02*
X121351785Y-90957200D01*
X121351785Y-90957200D02*
X121399404Y-90909580D01*
X121399404Y-90909580D02*
X121447023Y-90814342D01*
X121447023Y-90814342D02*
X121447023Y-90004819D01*
X121827976Y-90004819D02*
X122447023Y-90004819D01*
X122447023Y-90004819D02*
X122113690Y-90385771D01*
X122113690Y-90385771D02*
X122256547Y-90385771D01*
X122256547Y-90385771D02*
X122351785Y-90433390D01*
X122351785Y-90433390D02*
X122399404Y-90481009D01*
X122399404Y-90481009D02*
X122447023Y-90576247D01*
X122447023Y-90576247D02*
X122447023Y-90814342D01*
X122447023Y-90814342D02*
X122399404Y-90909580D01*
X122399404Y-90909580D02*
X122351785Y-90957200D01*
X122351785Y-90957200D02*
X122256547Y-91004819D01*
X122256547Y-91004819D02*
X121970833Y-91004819D01*
X121970833Y-91004819D02*
X121875595Y-90957200D01*
X121875595Y-90957200D02*
X121827976Y-90909580D01*
X130238095Y-78404819D02*
X130238095Y-79214342D01*
X130238095Y-79214342D02*
X130285714Y-79309580D01*
X130285714Y-79309580D02*
X130333333Y-79357200D01*
X130333333Y-79357200D02*
X130428571Y-79404819D01*
X130428571Y-79404819D02*
X130619047Y-79404819D01*
X130619047Y-79404819D02*
X130714285Y-79357200D01*
X130714285Y-79357200D02*
X130761904Y-79309580D01*
X130761904Y-79309580D02*
X130809523Y-79214342D01*
X130809523Y-79214342D02*
X130809523Y-78404819D01*
X131238095Y-78500057D02*
X131285714Y-78452438D01*
X131285714Y-78452438D02*
X131380952Y-78404819D01*
X131380952Y-78404819D02*
X131619047Y-78404819D01*
X131619047Y-78404819D02*
X131714285Y-78452438D01*
X131714285Y-78452438D02*
X131761904Y-78500057D01*
X131761904Y-78500057D02*
X131809523Y-78595295D01*
X131809523Y-78595295D02*
X131809523Y-78690533D01*
X131809523Y-78690533D02*
X131761904Y-78833390D01*
X131761904Y-78833390D02*
X131190476Y-79404819D01*
X131190476Y-79404819D02*
X131809523Y-79404819D01*
D17*
%TO.C,U3*%
X121637500Y-91390000D02*
X120837500Y-91390000D01*
X121637500Y-91390000D02*
X122437500Y-91390000D01*
X121637500Y-94510000D02*
X120837500Y-94510000D01*
X121637500Y-94510000D02*
X122437500Y-94510000D01*
X120337500Y-91440000D02*
X120097500Y-91110000D01*
X120577500Y-91110000D01*
X120337500Y-91440000D01*
G36*
X120337500Y-91440000D02*
G01*
X120097500Y-91110000D01*
X120577500Y-91110000D01*
X120337500Y-91440000D01*
G37*
D16*
%TO.C,U2*%
X127375000Y-81375000D02*
X127375000Y-81600000D01*
X127375000Y-81375000D02*
X127700000Y-81375000D01*
X127375000Y-88625000D02*
X127375000Y-88300000D01*
X127375000Y-88625000D02*
X127700000Y-88625000D01*
X134625000Y-81375000D02*
X134300000Y-81375000D01*
X134625000Y-81375000D02*
X134625000Y-81700000D01*
X134625000Y-88625000D02*
X134300000Y-88625000D01*
X134625000Y-88625000D02*
X134625000Y-88300000D01*
D17*
X126610000Y-81660000D02*
X126270000Y-81190000D01*
X126950000Y-81190000D01*
X126610000Y-81660000D01*
G36*
X126610000Y-81660000D02*
G01*
X126270000Y-81190000D01*
X126950000Y-81190000D01*
X126610000Y-81660000D01*
G37*
%TD*%
D18*
%TO.C,U3*%
X119587500Y-91250000D02*
X119587500Y-94650000D01*
X119587500Y-94650000D02*
X123687500Y-94650000D01*
X123687500Y-91250000D02*
X119587500Y-91250000D01*
X123687500Y-94650000D02*
X123687500Y-91250000D01*
%TO.C,U2*%
X125700000Y-79700000D02*
X125700000Y-90300000D01*
X125700000Y-79700000D02*
X136300000Y-79700000D01*
X125700000Y-90300000D02*
X136300000Y-90300000D01*
X136300000Y-79700000D02*
X136300000Y-90300000D01*
%TD*%
M02*
